<svg xmlns="http://www.w3.org/2000/svg" xmlns:xlink="http://www.w3.org/1999/xlink" xml:space="preserve" version="1.1" style="shape-rendering:geometricPrecision;text-rendering:geometricPrecision;image-rendering:optimizeQuality;" viewBox="0 0 375 468.75" x="0px" y="0px" fill-rule="evenodd" clip-rule="evenodd"><defs><style type="text/css">
   
    .fil1 {fill:#444}
    .fil0 {fill:#444;fill-rule:nonzero}
   
  </style></defs><g><path class="fil0" d="M187 0c104,0 188,84 188,187 0,104 -84,188 -188,188 -103,0 -187,-84 -187,-188 0,-103 84,-187 187,-187zm0 25c-89,0 -162,73 -162,162 0,90 73,162 162,162 90,0 162,-72 162,-162 0,-89 -72,-162 -162,-162z"/><path class="fil1" d="M187 214c42,0 81,21 104,56 4,6 3,15 -2,21 -27,26 -62,41 -102,41 -39,0 -75,-15 -101,-41 -6,-6 -7,-15 -2,-21 22,-34 60,-56 103,-56z"/><path class="fil1" d="M187 87c30,0 54,24 54,54 0,30 -24,54 -54,54 -30,0 -54,-24 -54,-54 0,-30 24,-54 54,-54z"/></g></svg>